<?xml version="1.0" encoding="UTF-8"?>
<svg id="Ebene_1" xmlns="http://www.w3.org/2000/svg" version="1.1" viewBox="0 0 1120.7 581.21">
  <!-- Generator: Adobe Illustrator 29.1.0, SVG Export Plug-In . SVG Version: 2.1.0 Build 142)  -->
  <path d="M101.05,294.5c10.03-2.65,20.26-10.62,26.87-18.55,26.64-31.98,14.8-82.42,18.07-120.61,1.68-19.66,15.97-34.37,35.73-36.54,9.7-1.06,20.89,2.27,27.74-7.42,5.12-7.25,4.8-29.06,3.89-38.08-.82-8.2-6.53-16.81-15.21-17.99-56.42-7.66-108.05,30.19-118.27,85.68-5.57,30.23,4.34,87.01-8.89,110.25-9.76,17.14-30.37,8.62-35.85,24.7-2.46,7.21-2.58,36.36,1.05,42.89,4.25,7.65,13.94,6.89,20.9,9.38,15.3,5.47,19.69,23.51,20.58,38.02,2.96,48.76-10.24,92.9,25.33,133.86,20.36,23.45,59.18,39.72,90.35,36.59,10.76-1.08,18.58-7.07,19.92-18.16.93-7.68.89-27.32-1.66-34.25-5.48-14.86-19.84-10.75-31.82-12.13-44.08-5.08-32.69-59.42-33.76-90.27-1.4-40.47-5.71-65.83-43.58-85.33-1.01-.52-1.84.51-1.39-2.03Z"/>
  <path d="M1084.8,276.1c-2.18-6.63-10.21-12.25-17.13-12.87l-608.61-.06.08-38.01c-2.96-48.76,10.24-92.9-25.33-133.86-20.36-23.45-59.18-39.72-90.35-36.59-10.76,1.08-18.58,7.07-19.92,18.16-.93,7.68-.89,27.32,1.66,34.25,5.48,14.86,19.84,10.75,31.82,12.13,44.08,5.08,32.69,59.42,33.76,90.27l.27,164.67c-.7,21.14,1.37,42.99-.25,61.86-1.68,19.66-15.97,34.37-35.73,36.54-9.7,1.06-20.89-2.27-27.74,7.42-5.12,7.25-4.8,29.06-3.89,38.08.82,8.2,6.53,16.81,15.21,17.99,56.42,7.66,109.78-30.19,120-85.68l.25-113.29h363.38v79.5c0,.41,1.22,6.74,1.47,7.53,2.59,8.51,10.57,13.11,19.04,13.96,7.94.79,32.64.9,39.48-1.5,4.49-1.57,12.01-9.32,12.01-13.99v-85.5h52v119.5c0,6.14,7.64,13.9,13.45,15.55,5.89,1.67,36.42,1.9,42.81.71,5.98-1.11,14.74-9.07,14.74-15.26v-119l1.5-1.5h50c5.22,0,14.67-7.89,16.04-12.96,2.25-8.36,2.6-40.09-.02-48.05Z"/>
</svg>
